<?xml version="1.0" encoding="UTF-8" standalone="no"?>
<!-- Created with Inkscape (http://www.inkscape.org/) -->

<svg
   width="22"
   height="22"
   viewBox="0 0 5.8208332 5.8208335"
   version="1.1"
   id="svg908"
   inkscape:version="1.1 (c4e8f9e, 2021-05-24)"
   sodipodi:docname="user-trash-full.svg"
   xmlns:inkscape="http://www.inkscape.org/namespaces/inkscape"
   xmlns:sodipodi="http://sodipodi.sourceforge.net/DTD/sodipodi-0.dtd"
   xmlns="http://www.w3.org/2000/svg"
   xmlns:svg="http://www.w3.org/2000/svg"
   xmlns:rdf="http://www.w3.org/1999/02/22-rdf-syntax-ns#"
   xmlns:cc="http://creativecommons.org/ns#">
  <sodipodi:namedview
     id="namedview910"
     pagecolor="#ffffff"
     bordercolor="#666666"
     borderopacity="1.0"
     inkscape:pageshadow="2"
     inkscape:pageopacity="0.0"
     inkscape:pagecheckerboard="0"
     inkscape:document-units="mm"
     showgrid="true"
     units="px"
     inkscape:zoom="20.51"
     inkscape:cx="9.629449"
     inkscape:cy="10.385178"
     inkscape:window-width="1052"
     inkscape:window-height="703"
     inkscape:window-x="314"
     inkscape:window-y="0"
     inkscape:window-maximized="0"
     inkscape:current-layer="layer1"
     inkscape:snap-smooth-nodes="true"
     inkscape:snap-nodes="true">
    <inkscape:grid
       type="xygrid"
       id="grid971" />
  </sodipodi:namedview>
  <defs
     id="defs905" />
  <g
     inkscape:label="Layer 1"
     inkscape:groupmode="layer"
     id="layer1">
    <g
       id="path30801">
      <path
         style="color:#000000;fill:none;stroke-width:0.167278;-inkscape-stroke:none"
         d="m 1.0583333,1.0583333 0.6465829,3.6766424 c 0.6950863,0.3276948 1.8690469,0.3276948 2.3479212,0 L 4.7625,1.0583333 c -0.79375,0.79375 -2.9104167,0.79375 -3.7041667,0 z"
         id="path6428"
         sodipodi:nodetypes="ccccc" />
    </g>
    <path
       style="color:#000000;fill:#000000;-inkscape-stroke:none"
       d="M 1.0583333,1.0583333 1.0973963,1.3122396 1.5875,4.7625 1.636328,4.795703 c 0.4803387,0.4959637 1.2738286,0.4953124 1.2738286,0.4953124 0,0 0.7940101,6.513e-4 1.2763017,-0.4953124 L 4.2333333,4.7625 4.7625,1.0583333 4.5339844,1.1735677 c -1.3589844,0.6785156 -1.888149,0.6785156 -3.245182,0 z m 0.3300782,0.40625 c 0.9928385,0.6520834 2.0511718,0.6520834 3.0440101,0 L 3.9930987,4.5925782 c -0.288932,0.4345051 -1.0829424,0.4347655 -1.0829424,0.4347655 0,0 -0.7934896,-2.604e-4 -1.0824224,-0.4347655 z"
       id="path10106"
       sodipodi:nodetypes="cccccccccsccccccc" />
    <path
       style="color:#000000;fill:#000000;-inkscape-stroke:none"
       d="M 2.9104167,0.52916667 C 2.3532047,0.52301521 1.6161048,0.68161701 1.0583333,1.0583333 l 0.1484375,0.21875 C 2.2514897,0.57148502 3.612036,0.61881386 4.6179687,1.2790364 L 4.7625,1.0583333 C 4.2274907,0.70719136 3.4676286,0.53531814 2.9104167,0.52916667 Z"
       id="path12623"
       sodipodi:nodetypes="sccccs" />
    <path
       style="fill:none;stroke:#000000;stroke-width:0.264583px;stroke-linecap:butt;stroke-linejoin:miter;stroke-opacity:1"
       d="M 1.8421979,1.5495119 2.1166667,0.52916667 3.4395833,1.0583333 4.0807001,1.4618434 2.8042483,1.791212 Z"
       id="path860"
       sodipodi:nodetypes="cccccc" />
  </g>
  <metadata
     id="metadata969">
    <rdf:RDF>
      <cc:License
         rdf:about="http://creativecommons.org/publicdomain/zero/1.0/">
        <cc:permits
           rdf:resource="http://creativecommons.org/ns#Reproduction" />
        <cc:permits
           rdf:resource="http://creativecommons.org/ns#Distribution" />
        <cc:permits
           rdf:resource="http://creativecommons.org/ns#DerivativeWorks" />
      </cc:License>
      <cc:Work
         rdf:about="">
        <cc:license
           rdf:resource="http://creativecommons.org/publicdomain/zero/1.0/" />
      </cc:Work>
    </rdf:RDF>
  </metadata>
</svg>
