<?xml version="1.0" encoding="UTF-8" standalone="no"?>
<!-- Created with Inkscape (http://www.inkscape.org/) -->

<svg
   width="16"
   height="16"
   viewBox="0 0 4.2333329 4.2333335"
   version="1.1"
   id="svg854"
   inkscape:version="1.1 (c4e8f9e, 2021-05-24)"
   sodipodi:docname="folder-documents.svg"
   xmlns:inkscape="http://www.inkscape.org/namespaces/inkscape"
   xmlns:sodipodi="http://sodipodi.sourceforge.net/DTD/sodipodi-0.dtd"
   xmlns="http://www.w3.org/2000/svg"
   xmlns:svg="http://www.w3.org/2000/svg"
   xmlns:rdf="http://www.w3.org/1999/02/22-rdf-syntax-ns#"
   xmlns:cc="http://creativecommons.org/ns#">
  <sodipodi:namedview
     id="namedview856"
     pagecolor="#ffffff"
     bordercolor="#666666"
     borderopacity="1.0"
     inkscape:pageshadow="2"
     inkscape:pageopacity="0.0"
     inkscape:pagecheckerboard="0"
     inkscape:document-units="mm"
     showgrid="true"
     units="px"
     inkscape:zoom="4.47"
     inkscape:cx="2.3489933"
     inkscape:cy="11.856823"
     inkscape:window-width="1366"
     inkscape:window-height="703"
     inkscape:window-x="0"
     inkscape:window-y="0"
     inkscape:window-maximized="1"
     inkscape:current-layer="layer1"
     inkscape:object-nodes="true"
     inkscape:snap-nodes="true">
    <inkscape:grid
       type="xygrid"
       id="grid917" />
  </sodipodi:namedview>
  <defs
     id="defs851" />
  <g
     inkscape:label="Layer 1"
     inkscape:groupmode="layer"
     id="layer1">
    <path
       style="color:#000000;fill:#000000;-inkscape-stroke:none"
       d="m 0.50714953,0.81509151 0.005788,2.64365099 c 0,0.5090961 0.54241357,0.5090961 0.54241357,0.5090961 l 2.119649,9.114e-4 c 0,0 0.5291666,0 0.5291666,-0.5291667 L 3.704167,1.5875 2.8312804,0.63494156 2.4906253,0.26354171 l -0.660085,3.538e-5 -0.8117327,-0.001022 c 0,0 -0.51165807,0.0197206 -0.51165807,0.55253607 z M 1.0421045,0.52825524 1.8520837,0.5291667 h 0.5291666 l 0.2613274,0.288505 0.7959646,0.8792033 0.00104,1.7427083 c 0,0 0.00113,0.2655023 -0.2645833,0.2645833 l -2.1166657,10e-8 C 0.77752113,3.7032552 0.77660973,3.4347676 0.77660973,3.4347676 L 0.77082143,0.83679761 C 0.77173283,0.52733221 1.0421045,0.52825524 1.0421045,0.52825524 Z"
       id="path857"
       sodipodi:nodetypes="cccccccccccccccccccccc" />
    <path
       style="color:#000000;fill:#000000;-inkscape-stroke:none"
       d="M 2.1166667,0.52916667 V 1.323828 c 0,0 0,0.5291667 0.5291666,0.5291667 l 0.79375,-9.114e-4 V 1.5884114 h -0.79375 C 2.38125,1.5884114 2.38125,1.323828 2.38125,1.323828 l 0.00104,-0.79466133 z"
       id="path2053"
       sodipodi:nodetypes="ccccccccc" />
  </g>
  <metadata
     id="metadata915">
    <rdf:RDF>
      <cc:Work
         rdf:about="">
        <cc:license
           rdf:resource="http://creativecommons.org/publicdomain/zero/1.0/" />
      </cc:Work>
      <cc:License
         rdf:about="http://creativecommons.org/publicdomain/zero/1.0/">
        <cc:permits
           rdf:resource="http://creativecommons.org/ns#Reproduction" />
        <cc:permits
           rdf:resource="http://creativecommons.org/ns#Distribution" />
        <cc:permits
           rdf:resource="http://creativecommons.org/ns#DerivativeWorks" />
      </cc:License>
    </rdf:RDF>
  </metadata>
</svg>
