<?xml version="1.0" encoding="UTF-8" standalone="no"?>
<!-- Created with Inkscape (http://www.inkscape.org/) -->

<svg
   width="16"
   height="16"
   viewBox="0 0 4.2333334 4.2333335"
   version="1.1"
   id="svg7403"
   inkscape:version="1.1 (c4e8f9e, 2021-05-24)"
   sodipodi:docname="folder.svg"
   xmlns:inkscape="http://www.inkscape.org/namespaces/inkscape"
   xmlns:sodipodi="http://sodipodi.sourceforge.net/DTD/sodipodi-0.dtd"
   xmlns:xlink="http://www.w3.org/1999/xlink"
   xmlns="http://www.w3.org/2000/svg"
   xmlns:svg="http://www.w3.org/2000/svg"
   xmlns:rdf="http://www.w3.org/1999/02/22-rdf-syntax-ns#"
   xmlns:cc="http://creativecommons.org/ns#">
  <sodipodi:namedview
     id="namedview7405"
     pagecolor="#ffffff"
     bordercolor="#666666"
     borderopacity="1.0"
     inkscape:pageshadow="2"
     inkscape:pageopacity="0.0"
     inkscape:pagecheckerboard="0"
     inkscape:document-units="mm"
     showgrid="true"
     units="px"
     inkscape:snap-smooth-nodes="true"
     showguides="false"
     inkscape:zoom="4.17"
     inkscape:cx="8.0335731"
     inkscape:cy="7.6738609"
     inkscape:window-width="1366"
     inkscape:window-height="703"
     inkscape:window-x="0"
     inkscape:window-y="0"
     inkscape:window-maximized="1"
     inkscape:current-layer="layer1">
    <inkscape:grid
       type="xygrid"
       id="grid7466" />
  </sodipodi:namedview>
  <defs
     id="defs7400">
    <linearGradient
       inkscape:collect="always"
       xlink:href="#linearGradient14240"
       id="linearGradient14242"
       x1="12"
       y1="21.75"
       x2="12"
       y2="15.75"
       gradientUnits="userSpaceOnUse"
       gradientTransform="matrix(0.35277777,0,0,0.35277777,-8.4666665,-1.5874999)" />
    <linearGradient
       inkscape:collect="always"
       id="linearGradient14240">
      <stop
         style="stop-color:#876d5b;stop-opacity:1"
         offset="0"
         id="stop14236" />
      <stop
         style="stop-color:#a78e7c;stop-opacity:1"
         offset="1"
         id="stop14238" />
    </linearGradient>
    <linearGradient
       inkscape:collect="always"
       xlink:href="#linearGradient23640"
       id="linearGradient23642"
       x1="9.75"
       y1="9"
       x2="9.75"
       y2="5.25"
       gradientUnits="userSpaceOnUse"
       gradientTransform="matrix(0.35277777,0,0,0.35277777,-8.4666665,-1.5874999)" />
    <linearGradient
       inkscape:collect="always"
       id="linearGradient23640">
      <stop
         style="stop-color:#000000;stop-opacity:0.16107376"
         offset="0"
         id="stop23636" />
      <stop
         style="stop-color:#000000;stop-opacity:0;"
         offset="1"
         id="stop23638" />
    </linearGradient>
    <linearGradient
       inkscape:collect="always"
       xlink:href="#linearGradient934"
       id="linearGradient936"
       x1="12"
       y1="7.5"
       x2="12"
       y2="12.75"
       gradientUnits="userSpaceOnUse"
       gradientTransform="matrix(0.35277777,0,0,0.35277777,-8.4666665,-1.5874999)" />
    <linearGradient
       inkscape:collect="always"
       id="linearGradient934">
      <stop
         style="stop-color:#ffffff;stop-opacity:0.30000001"
         offset="0"
         id="stop930" />
      <stop
         style="stop-color:#ffffff;stop-opacity:0"
         offset="1"
         id="stop932" />
    </linearGradient>
  </defs>
  <g
     inkscape:label="Layer 1"
     inkscape:groupmode="layer"
     id="layer1">
    <path
       style="fill:url(#linearGradient14242);fill-opacity:1;stroke:none;stroke-width:0.264583px;stroke-linecap:butt;stroke-linejoin:miter;stroke-opacity:1"
       d="m -7.6729165,1.5875 h 2.1166666 l 0.79375,-0.5291666 H -1.5875 c 0.79375,0 0.79375,0.79375 0.79375,0.79375 v 3.4395835 c 2e-7,0.7937499 -0.79375,0.79375 -0.79375,0.79375 h -5.2916665 c 0,0 -0.79375,-1e-7 -0.79375,-0.79375 z"
       id="path2747"
       sodipodi:nodetypes="cccccccccc" />
    <path
       style="fill:#705d4b;fill-opacity:1;stroke:none;stroke-width:0.264583px;stroke-linecap:butt;stroke-linejoin:miter;stroke-opacity:1"
       d="m -7.6729165,1.5875 h 2.1166666 l 0.79375,-0.5291666 H -1.5875 c 0,0 -0.2645833,-0.79375 -0.79375,-0.79375 h -1.5874999 l -1.0583333,-1.0583333 h -2.6458333 z"
       id="path18420"
       sodipodi:nodetypes="ccccccccc" />
    <path
       style="fill:url(#linearGradient23642);fill-opacity:1;stroke:none;stroke-width:0.264583px;stroke-linecap:butt;stroke-linejoin:miter;stroke-opacity:1"
       d="m -7.6729165,1.5875 h 2.1166666 l 0.79375,-0.5291666 H -1.5875 c 0,0 0,-0.79375 -0.79375,-0.79375 h -2.6458332 1.0583333 -3.7041666 z"
       id="path23601"
       sodipodi:nodetypes="ccccccccc" />
    <path
       style="fill:url(#linearGradient936);fill-opacity:1;stroke:none;stroke-width:0.264583px;stroke-linecap:butt;stroke-linejoin:miter;stroke-opacity:1"
       d="m -7.6729165,1.5875 h 2.1166666 l 0.79375,-0.5291666 H -1.5875 c 0.5291667,0 0.79375,0.2645833 0.79375,0.79375 v 1.0583333 h -6.8791665 z"
       id="path895"
       sodipodi:nodetypes="cccccccc" />
    <path
       style="color:#000000;fill:#000000;-inkscape-stroke:none"
       d="M 2.1166667,1.3229167 1.5875,1.5875 0.26471353,1.5888 0.26458333,3.4395833 c 0,0.5291667 0.52916697,0.5282534 0.52916697,0.5282534 l 2.6458333,-10e-8 c 0,0 0.5291664,9.134e-4 0.5291664,-0.5282533 v -1.5875 c 0,0 0,-0.5291666 -0.5291667,-0.5291666 z m 0.109375,0.2636719 1.2135416,0 c 0,0 0.2645834,9.114e-4 0.2654945,0.2654948 v 1.5875 c 0,0 -9.111e-4,0.2645833 -0.2654945,0.2645833 H 0.79375 C 0.52612768,3.6937362 0.53020834,3.4395854 0.53020834,3.4395854 l 1.3018e-4,-1.5851583 1.16653648,-0.0013 z"
       id="path7768"
       sodipodi:nodetypes="cccccccccccccccccccc" />
    <path
       style="color:#000000;fill:#000000;-inkscape-stroke:none"
       d="M 0.26458333,0.26458333 0.26367187,1.5893229 H 0.52929686 L 0.53020832,0.53020832 1.5875,0.52916663 2.1166667,1.0583333 3.175,1.0583333 3.4395833,1.5875 h 0.2645833 l -0.4178385,-0.79283857 -1.0602864,0 L 1.696875,0.26354164 Z"
       id="path8159"
       sodipodi:nodetypes="ccccccccccccc" />
  </g>
  <metadata
     id="metadata7464">
    <rdf:RDF>
      <cc:Work
         rdf:about="">
        <cc:license
           rdf:resource="http://creativecommons.org/publicdomain/zero/1.0/" />
      </cc:Work>
      <cc:License
         rdf:about="http://creativecommons.org/publicdomain/zero/1.0/">
        <cc:permits
           rdf:resource="http://creativecommons.org/ns#Reproduction" />
        <cc:permits
           rdf:resource="http://creativecommons.org/ns#Distribution" />
        <cc:permits
           rdf:resource="http://creativecommons.org/ns#DerivativeWorks" />
      </cc:License>
    </rdf:RDF>
  </metadata>
</svg>
